ply
format ascii 1.0
element vertex 175
property float x
property float y
property float z
element face 89
property list uchar int vertex_indices
end_header
-267.0140 0.0000 -182.7756
-231.9882 0.0000 -136.8712
-231.9882 3.2000 -136.8712
-267.0140 3.2000 -182.7756
-231.9882 0.0000 -136.8712
-256.2236 0.0000 -118.3610
-256.2236 3.2000 -118.3610
-231.9882 3.2000 -136.8712
-256.2236 0.0000 -118.3610
-291.0880 0.0000 -164.3983
-291.0880 3.2000 -164.3983
-256.2236 3.2000 -118.3610
-291.0880 0.0000 -164.3983
-267.0140 0.0000 -182.7756
-267.0140 3.2000 -182.7756
-291.0880 3.2000 -164.3983
-267.0140 3.2000 -182.7756
-231.9882 3.2000 -136.8712
-256.2236 3.2000 -118.3610
-291.0880 3.2000 -164.3983
-151.4792 0.0000 -148.9344
-130.7160 0.0000 -126.7022
-130.7160 6.0000 -126.7022
-151.4792 6.0000 -148.9344
-130.7160 0.0000 -126.7022
-135.9649 0.0000 -121.8504
-135.9649 6.0000 -121.8504
-130.7160 6.0000 -126.7022
-135.9649 0.0000 -121.8504
-156.7381 0.0000 -144.0825
-156.7381 6.0000 -144.0825
-135.9649 6.0000 -121.8504
-156.7381 0.0000 -144.0825
-151.4792 0.0000 -148.9344
-151.4792 6.0000 -148.9344
-156.7381 6.0000 -144.0825
-151.4792 6.0000 -148.9344
-130.7160 6.0000 -126.7022
-135.9649 6.0000 -121.8504
-156.7381 6.0000 -144.0825
-112.1836 0.0000 -181.8894
-91.4205 0.0000 -159.6683
-91.4205 6.0000 -159.6683
-112.1836 6.0000 -181.8894
-91.4205 0.0000 -159.6683
-97.5879 0.0000 -153.9635
-97.5879 6.0000 -153.9635
-91.4205 6.0000 -159.6683
-97.5879 0.0000 -153.9635
-118.3611 0.0000 -176.1957
-118.3611 6.0000 -176.1957
-97.5879 6.0000 -153.9635
-118.3611 0.0000 -176.1957
-112.1836 0.0000 -181.8894
-112.1836 6.0000 -181.8894
-118.3611 6.0000 -176.1957
-112.1836 6.0000 -181.8894
-91.4205 6.0000 -159.6683
-97.5879 6.0000 -153.9635
-118.3611 6.0000 -176.1957
-125.3865 0.0000 -169.5714
-109.2968 0.0000 -152.3573
-109.2968 6.0000 -152.3573
-125.3865 6.0000 -169.5714
-109.2968 0.0000 -152.3573
-104.6132 0.0000 -147.3503
-104.6132 6.0000 -147.3503
-109.2968 6.0000 -152.3573
-104.6132 0.0000 -147.3503
-110.7907 0.0000 -141.6455
-110.7907 6.0000 -141.6455
-104.6132 6.0000 -147.3503
-110.7907 0.0000 -141.6455
-115.5550 0.0000 -146.7411
-115.5550 6.0000 -146.7411
-110.7907 6.0000 -141.6455
-115.5550 0.0000 -146.7411
-131.5538 0.0000 -163.8777
-131.5538 6.0000 -163.8777
-115.5550 6.0000 -146.7411
-131.5538 0.0000 -163.8777
-125.3865 0.0000 -169.5714
-125.3865 6.0000 -169.5714
-131.5538 6.0000 -163.8777
-125.3865 6.0000 -169.5714
-109.2968 6.0000 -152.3573
-104.6132 6.0000 -147.3503
-110.7907 6.0000 -141.6455
-115.5550 6.0000 -146.7411
-131.5538 6.0000 -163.8777
-138.4480 0.0000 -157.1205
-130.8170 0.0000 -148.9566
-130.8170 6.0000 -148.9566
-138.4480 6.0000 -157.1205
-130.8170 0.0000 -148.9566
-117.6848 0.0000 -134.8884
-117.6848 6.0000 -134.8884
-130.8170 6.0000 -148.9566
-117.6848 0.0000 -134.8884
-123.8522 0.0000 -129.1946
-123.8522 6.0000 -129.1946
-117.6848 6.0000 -134.8884
-123.8522 0.0000 -129.1946
-144.6254 0.0000 -151.4157
-144.6254 6.0000 -151.4157
-123.8522 6.0000 -129.1946
-144.6254 0.0000 -151.4157
-138.4480 0.0000 -157.1205
-138.4480 6.0000 -157.1205
-144.6254 6.0000 -151.4157
-138.4480 6.0000 -157.1205
-130.8170 6.0000 -148.9566
-117.6848 6.0000 -134.8884
-123.8522 6.0000 -129.1946
-144.6254 6.0000 -151.4157
-157.9393 0.0000 -142.9859
-137.1761 0.0000 -120.7537
-137.1761 6.0000 -120.7537
-157.9393 6.0000 -142.9859
-137.1761 0.0000 -120.7537
-143.3435 0.0000 -115.0489
-143.3435 6.0000 -115.0489
-137.1761 6.0000 -120.7537
-143.3435 0.0000 -115.0489
-164.1168 0.0000 -137.2811
-164.1168 6.0000 -137.2811
-143.3435 6.0000 -115.0489
-164.1168 0.0000 -137.2811
-157.9393 0.0000 -142.9859
-157.9393 6.0000 -142.9859
-164.1168 6.0000 -137.2811
-157.9393 6.0000 -142.9859
-137.1761 6.0000 -120.7537
-143.3435 6.0000 -115.0489
-164.1168 6.0000 -137.2811
-169.6482 0.0000 -131.8864
-148.8851 0.0000 -109.6543
-148.8851 6.0000 -109.6543
-169.6482 6.0000 -131.8864
-148.8851 0.0000 -109.6543
-155.0524 0.0000 -103.9495
-155.0524 6.0000 -103.9495
-148.8851 6.0000 -109.6543
-155.0524 0.0000 -103.9495
-175.8257 0.0000 -126.1816
-175.8257 6.0000 -126.1816
-155.0524 6.0000 -103.9495
-175.8257 0.0000 -126.1816
-169.6482 0.0000 -131.8864
-169.6482 6.0000 -131.8864
-175.8257 6.0000 -126.1816
-169.6482 6.0000 -131.8864
-148.8851 6.0000 -109.6543
-155.0524 6.0000 -103.9495
-175.8257 6.0000 -126.1816
-181.2562 0.0000 -120.9420
-160.4931 0.0000 -98.7210
-160.4931 6.0000 -98.7210
-181.2562 6.0000 -120.9420
-160.4931 0.0000 -98.7210
-166.6604 0.0000 -93.0161
-166.6604 6.0000 -93.0161
-160.4931 6.0000 -98.7210
-166.6604 0.0000 -93.0161
-187.4337 0.0000 -115.2372
-187.4337 6.0000 -115.2372
-166.6604 6.0000 -93.0161
-187.4337 0.0000 -115.2372
-181.2562 0.0000 -120.9420
-181.2562 6.0000 -120.9420
-187.4337 6.0000 -115.2372
-181.2562 6.0000 -120.9420
-160.4931 6.0000 -98.7210
-166.6604 6.0000 -93.0161
-187.4337 6.0000 -115.2372
3 0 1 2
3 0 2 3
3 4 5 6
3 4 6 7
3 8 9 10
3 8 10 11
3 12 13 14
3 12 14 15
3 16 19 18
3 18 17 16
3 20 21 22
3 20 22 23
3 24 25 26
3 24 26 27
3 28 29 30
3 28 30 31
3 32 33 34
3 32 34 35
3 36 39 38
3 38 37 36
3 40 41 42
3 40 42 43
3 44 45 46
3 44 46 47
3 48 49 50
3 48 50 51
3 52 53 54
3 52 54 55
3 56 59 58
3 58 57 56
3 60 61 62
3 60 62 63
3 64 65 66
3 64 66 67
3 68 69 70
3 68 70 71
3 72 73 74
3 72 74 75
3 76 77 78
3 76 78 79
3 80 81 82
3 80 82 83
3 84 89 88
3 87 86 85
3 84 88 87
3 87 85 84
3 90 91 92
3 90 92 93
3 94 95 96
3 94 96 97
3 98 99 100
3 98 100 101
3 102 103 104
3 102 104 105
3 106 107 108
3 106 108 109
3 110 114 113
3 112 111 110
3 110 113 112
3 115 116 117
3 115 117 118
3 119 120 121
3 119 121 122
3 123 124 125
3 123 125 126
3 127 128 129
3 127 129 130
3 131 134 133
3 133 132 131
3 135 136 137
3 135 137 138
3 139 140 141
3 139 141 142
3 143 144 145
3 143 145 146
3 147 148 149
3 147 149 150
3 151 154 153
3 153 152 151
3 155 156 157
3 155 157 158
3 159 160 161
3 159 161 162
3 163 164 165
3 163 165 166
3 167 168 169
3 167 169 170
3 171 174 173
3 173 172 171
